<svg height="2686" width="720" xmlns="http://www.w3.org/2000/svg">
<rect height="2686" fill="#555" width="720"></rect>
<text fill="#7f7" font-family="Courier New" font-size="12" xml:space="preserve">
<tspan x="10" y="26">20 megabytes installed</tspan>
<tspan x="10" y="42"></tspan>
<tspan x="10" y="58">node_modules</tspan>
<tspan x="10" y="74">└─┬ gulp-less@3.3.0 </tspan>
<tspan x="10" y="90">  ├─┬ accord@0.26.4 </tspan>
<tspan x="10" y="106">  │ ├── convert-source-map@1.5.0 </tspan>
<tspan x="10" y="122">  │ ├─┬ glob@7.1.1 </tspan>
<tspan x="10" y="138">  │ │ ├── fs.realpath@1.0.0 </tspan>
<tspan x="10" y="154">  │ │ ├─┬ inflight@1.0.6 </tspan>
<tspan x="10" y="170">  │ │ │ └── wrappy@1.0.2 </tspan>
<tspan x="10" y="186">  │ │ ├── inherits@2.0.3 </tspan>
<tspan x="10" y="202">  │ │ ├─┬ minimatch@3.0.3 </tspan>
<tspan x="10" y="218">  │ │ │ └─┬ brace-expansion@1.1.7 </tspan>
<tspan x="10" y="234">  │ │ │   ├── balanced-match@0.4.2 </tspan>
<tspan x="10" y="250">  │ │ │   └── concat-map@0.0.1 </tspan>
<tspan x="10" y="266">  │ │ ├── once@1.4.0 </tspan>
<tspan x="10" y="282">  │ │ └── path-is-absolute@1.0.1 </tspan>
<tspan x="10" y="298">  │ ├── indx@0.2.3 </tspan>
<tspan x="10" y="314">  │ ├── lodash.clone@4.5.0 </tspan>
<tspan x="10" y="330">  │ ├── lodash.defaults@4.2.0 </tspan>
<tspan x="10" y="346">  │ ├── lodash.flatten@4.4.0 </tspan>
<tspan x="10" y="362">  │ ├── lodash.merge@4.6.0 </tspan>
<tspan x="10" y="378">  │ ├── lodash.partialright@4.2.1 </tspan>
<tspan x="10" y="394">  │ ├── lodash.pick@4.4.0 </tspan>
<tspan x="10" y="410">  │ ├── lodash.uniq@4.5.0 </tspan>
<tspan x="10" y="426">  │ ├─┬ resolve@1.3.3 </tspan>
<tspan x="10" y="442">  │ │ └── path-parse@1.0.5 </tspan>
<tspan x="10" y="458">  │ ├── semver@5.3.0 </tspan>
<tspan x="10" y="474">  │ ├─┬ uglify-js@2.8.22 </tspan>
<tspan x="10" y="490">  │ │ ├── uglify-to-browserify@1.0.2 </tspan>
<tspan x="10" y="506">  │ │ └─┬ yargs@3.10.0 </tspan>
<tspan x="10" y="522">  │ │   ├── camelcase@1.2.1 </tspan>
<tspan x="10" y="538">  │ │   ├─┬ cliui@2.1.0 </tspan>
<tspan x="10" y="554">  │ │   │ ├─┬ center-align@0.1.3 </tspan>
<tspan x="10" y="570">  │ │   │ │ ├─┬ align-text@0.1.4 </tspan>
<tspan x="10" y="586">  │ │   │ │ │ ├─┬ kind-of@3.2.0 </tspan>
<tspan x="10" y="602">  │ │   │ │ │ │ └── is-buffer@1.1.5 </tspan>
<tspan x="10" y="618">  │ │   │ │ │ ├── longest@1.0.1 </tspan>
<tspan x="10" y="634">  │ │   │ │ │ └── repeat-string@1.6.1 </tspan>
<tspan x="10" y="650">  │ │   │ │ └── lazy-cache@1.0.4 </tspan>
<tspan x="10" y="666">  │ │   │ ├── right-align@0.1.3 </tspan>
<tspan x="10" y="682">  │ │   │ └── wordwrap@0.0.2 </tspan>
<tspan x="10" y="698">  │ │   ├── decamelize@1.2.0 </tspan>
<tspan x="10" y="714">  │ │   └── window-size@0.1.0 </tspan>
<tspan x="10" y="730">  │ └── when@3.7.8 </tspan>
<tspan x="10" y="746">  ├─┬ gulp-util@3.0.8 </tspan>
<tspan x="10" y="762">  │ ├── array-differ@1.0.0 </tspan>
<tspan x="10" y="778">  │ ├── array-uniq@1.0.3 </tspan>
<tspan x="10" y="794">  │ ├── beeper@1.1.1 </tspan>
<tspan x="10" y="810">  │ ├─┬ chalk@1.1.3 </tspan>
<tspan x="10" y="826">  │ │ ├── ansi-styles@2.2.1 </tspan>
<tspan x="10" y="842">  │ │ ├── escape-string-regexp@1.0.5 </tspan>
<tspan x="10" y="858">  │ │ ├─┬ has-ansi@2.0.0 </tspan>
<tspan x="10" y="874">  │ │ │ └── ansi-regex@2.1.1 </tspan>
<tspan x="10" y="890">  │ │ ├── strip-ansi@3.0.1 </tspan>
<tspan x="10" y="906">  │ │ └── supports-color@2.0.0 </tspan>
<tspan x="10" y="922">  │ ├── dateformat@2.0.0 </tspan>
<tspan x="10" y="938">  │ ├─┬ fancy-log@1.3.0 </tspan>
<tspan x="10" y="954">  │ │ └── time-stamp@1.0.1 </tspan>
<tspan x="10" y="970">  │ ├─┬ gulplog@1.0.0 </tspan>
<tspan x="10" y="986">  │ │ └── glogg@1.0.0 </tspan>
<tspan x="10" y="1002">  │ ├─┬ has-gulplog@0.1.0 </tspan>
<tspan x="10" y="1018">  │ │ └── sparkles@1.0.0 </tspan>
<tspan x="10" y="1034">  │ ├── lodash._reescape@3.0.0 </tspan>
<tspan x="10" y="1050">  │ ├── lodash._reevaluate@3.0.0 </tspan>
<tspan x="10" y="1066">  │ ├── lodash._reinterpolate@3.0.0 </tspan>
<tspan x="10" y="1082">  │ ├─┬ lodash.template@3.6.2 </tspan>
<tspan x="10" y="1098">  │ │ ├── lodash._basecopy@3.0.1 </tspan>
<tspan x="10" y="1114">  │ │ ├── lodash._basetostring@3.0.1 </tspan>
<tspan x="10" y="1130">  │ │ ├── lodash._basevalues@3.0.0 </tspan>
<tspan x="10" y="1146">  │ │ ├── lodash._isiterateecall@3.0.9 </tspan>
<tspan x="10" y="1162">  │ │ ├─┬ lodash.escape@3.2.0 </tspan>
<tspan x="10" y="1178">  │ │ │ └── lodash._root@3.0.1 </tspan>
<tspan x="10" y="1194">  │ │ ├─┬ lodash.keys@3.1.2 </tspan>
<tspan x="10" y="1210">  │ │ │ ├── lodash._getnative@3.9.1 </tspan>
<tspan x="10" y="1226">  │ │ │ ├── lodash.isarguments@3.1.0 </tspan>
<tspan x="10" y="1242">  │ │ │ └── lodash.isarray@3.0.4 </tspan>
<tspan x="10" y="1258">  │ │ ├── lodash.restparam@3.6.1 </tspan>
<tspan x="10" y="1274">  │ │ └── lodash.templatesettings@3.1.1 </tspan>
<tspan x="10" y="1290">  │ ├── minimist@1.2.0 </tspan>
<tspan x="10" y="1306">  │ ├─┬ multipipe@0.1.2 </tspan>
<tspan x="10" y="1322">  │ │ └─┬ duplexer2@0.0.2 </tspan>
<tspan x="10" y="1338">  │ │   └─┬ readable-stream@1.1.14 </tspan>
<tspan x="10" y="1354">  │ │     ├── isarray@0.0.1 </tspan>
<tspan x="10" y="1370">  │ │     └── string_decoder@0.10.31 </tspan>
<tspan x="10" y="1386">  │ ├── object-assign@3.0.0 </tspan>
<tspan x="10" y="1402">  │ ├── replace-ext@0.0.1 </tspan>
<tspan x="10" y="1418">  │ └─┬ vinyl@0.5.3 </tspan>
<tspan x="10" y="1434">  │   ├── clone@1.0.2 </tspan>
<tspan x="10" y="1450">  │   └── clone-stats@0.0.1 </tspan>
<tspan x="10" y="1466">  ├─┬ less@2.7.2 </tspan>
<tspan x="10" y="1482">  │ ├─┬ errno@0.1.4 </tspan>
<tspan x="10" y="1498">  │ │ └── prr@0.0.0 </tspan>
<tspan x="10" y="1514">  │ ├── graceful-fs@4.1.11 </tspan>
<tspan x="10" y="1530">  │ ├── image-size@0.5.1 </tspan>
<tspan x="10" y="1546">  │ ├── mime@1.3.4 </tspan>
<tspan x="10" y="1562">  │ ├─┬ mkdirp@0.5.1 </tspan>
<tspan x="10" y="1578">  │ │ └── minimist@0.0.8 </tspan>
<tspan x="10" y="1594">  │ ├─┬ promise@7.1.1 </tspan>
<tspan x="10" y="1610">  │ │ └── asap@2.0.5 </tspan>
<tspan x="10" y="1626">  │ ├─┬ request@2.81.0 </tspan>
<tspan x="10" y="1642">  │ │ ├── aws-sign2@0.6.0 </tspan>
<tspan x="10" y="1658">  │ │ ├── aws4@1.6.0 </tspan>
<tspan x="10" y="1674">  │ │ ├── caseless@0.12.0 </tspan>
<tspan x="10" y="1690">  │ │ ├─┬ combined-stream@1.0.5 </tspan>
<tspan x="10" y="1706">  │ │ │ └── delayed-stream@1.0.0 </tspan>
<tspan x="10" y="1722">  │ │ ├── extend@3.0.0 </tspan>
<tspan x="10" y="1738">  │ │ ├── forever-agent@0.6.1 </tspan>
<tspan x="10" y="1754">  │ │ ├─┬ form-data@2.1.4 </tspan>
<tspan x="10" y="1770">  │ │ │ └── asynckit@0.4.0 </tspan>
<tspan x="10" y="1786">  │ │ ├─┬ har-validator@4.2.1 </tspan>
<tspan x="10" y="1802">  │ │ │ ├─┬ ajv@4.11.7 </tspan>
<tspan x="10" y="1818">  │ │ │ │ ├── co@4.6.0 </tspan>
<tspan x="10" y="1834">  │ │ │ │ └─┬ json-stable-stringify@1.0.1 </tspan>
<tspan x="10" y="1850">  │ │ │ │   └── jsonify@0.0.0 </tspan>
<tspan x="10" y="1866">  │ │ │ └── har-schema@1.0.5 </tspan>
<tspan x="10" y="1882">  │ │ ├─┬ hawk@3.1.3 </tspan>
<tspan x="10" y="1898">  │ │ │ ├── boom@2.10.1 </tspan>
<tspan x="10" y="1914">  │ │ │ ├── cryptiles@2.0.5 </tspan>
<tspan x="10" y="1930">  │ │ │ ├── hoek@2.16.3 </tspan>
<tspan x="10" y="1946">  │ │ │ └── sntp@1.0.9 </tspan>
<tspan x="10" y="1962">  │ │ ├─┬ http-signature@1.1.1 </tspan>
<tspan x="10" y="1978">  │ │ │ ├── assert-plus@0.2.0 </tspan>
<tspan x="10" y="1994">  │ │ │ ├─┬ jsprim@1.4.0 </tspan>
<tspan x="10" y="2010">  │ │ │ │ ├── assert-plus@1.0.0 </tspan>
<tspan x="10" y="2026">  │ │ │ │ ├── extsprintf@1.0.2 </tspan>
<tspan x="10" y="2042">  │ │ │ │ ├── json-schema@0.2.3 </tspan>
<tspan x="10" y="2058">  │ │ │ │ └── verror@1.3.6 </tspan>
<tspan x="10" y="2074">  │ │ │ └─┬ sshpk@1.13.0 </tspan>
<tspan x="10" y="2090">  │ │ │   ├── asn1@0.2.3 </tspan>
<tspan x="10" y="2106">  │ │ │   ├── assert-plus@1.0.0 </tspan>
<tspan x="10" y="2122">  │ │ │   ├── bcrypt-pbkdf@1.0.1 </tspan>
<tspan x="10" y="2138">  │ │ │   ├─┬ dashdash@1.14.1 </tspan>
<tspan x="10" y="2154">  │ │ │   │ └── assert-plus@1.0.0 </tspan>
<tspan x="10" y="2170">  │ │ │   ├── ecc-jsbn@0.1.1 </tspan>
<tspan x="10" y="2186">  │ │ │   ├─┬ getpass@0.1.6 </tspan>
<tspan x="10" y="2202">  │ │ │   │ └── assert-plus@1.0.0 </tspan>
<tspan x="10" y="2218">  │ │ │   ├── jodid25519@1.0.2 </tspan>
<tspan x="10" y="2234">  │ │ │   ├── jsbn@0.1.1 </tspan>
<tspan x="10" y="2250">  │ │ │   └── tweetnacl@0.14.5 </tspan>
<tspan x="10" y="2266">  │ │ ├── is-typedarray@1.0.0 </tspan>
<tspan x="10" y="2282">  │ │ ├── isstream@0.1.2 </tspan>
<tspan x="10" y="2298">  │ │ ├── json-stringify-safe@5.0.1 </tspan>
<tspan x="10" y="2314">  │ │ ├─┬ mime-types@2.1.15 </tspan>
<tspan x="10" y="2330">  │ │ │ └── mime-db@1.27.0 </tspan>
<tspan x="10" y="2346">  │ │ ├── oauth-sign@0.8.2 </tspan>
<tspan x="10" y="2362">  │ │ ├── performance-now@0.2.0 </tspan>
<tspan x="10" y="2378">  │ │ ├── qs@6.4.0 </tspan>
<tspan x="10" y="2394">  │ │ ├── safe-buffer@5.0.1 </tspan>
<tspan x="10" y="2410">  │ │ ├── stringstream@0.0.5 </tspan>
<tspan x="10" y="2426">  │ │ ├─┬ tough-cookie@2.3.2 </tspan>
<tspan x="10" y="2442">  │ │ │ └── punycode@1.4.1 </tspan>
<tspan x="10" y="2458">  │ │ ├── tunnel-agent@0.6.0 </tspan>
<tspan x="10" y="2474">  │ │ └── uuid@3.0.1 </tspan>
<tspan x="10" y="2490">  │ └── source-map@0.5.6 </tspan>
<tspan x="10" y="2506">  ├── object-assign@4.1.1 </tspan>
<tspan x="10" y="2522">  ├─┬ through2@2.0.3 </tspan>
<tspan x="10" y="2538">  │ ├─┬ readable-stream@2.2.9 </tspan>
<tspan x="10" y="2554">  │ │ ├── buffer-shims@1.0.0 </tspan>
<tspan x="10" y="2570">  │ │ ├── core-util-is@1.0.2 </tspan>
<tspan x="10" y="2586">  │ │ ├── isarray@1.0.0 </tspan>
<tspan x="10" y="2602">  │ │ ├── process-nextick-args@1.0.7 </tspan>
<tspan x="10" y="2618">  │ │ ├── string_decoder@1.0.0 </tspan>
<tspan x="10" y="2634">  │ │ └── util-deprecate@1.0.2 </tspan>
<tspan x="10" y="2650">  │ └── xtend@4.0.1 </tspan>
<tspan x="10" y="2666">  └── vinyl-sourcemaps-apply@0.2.1</tspan>
</text>
</svg>
